<mxfile host="app.diagrams.net" agent="Mozilla/5.0 (Windows NT 10.0; Win64; x64) AppleWebKit/537.36 (KHTML, like Gecko) Chrome/133.0.0.0 Safari/537.36" version="26.1.0">
  <diagram name="Page-1" id="gZU_hcXTKBrcWHxRhqKH">
    <mxGraphModel dx="880" dy="1534" grid="1" gridSize="10" guides="1" tooltips="1" connect="1" arrows="1" fold="1" page="1" pageScale="1" pageWidth="850" pageHeight="1100" math="0" shadow="0">
      <root>
        <mxCell id="0" />
        <mxCell id="1" parent="0" />
        <mxCell id="kggum_o1opRNr4FQGBPl-2" value="Activity diagram tambah kuisioner" style="swimlane;childLayout=stackLayout;resizeParent=1;resizeParentMax=0;startSize=20;html=1;" vertex="1" parent="1">
          <mxGeometry x="220.00000000000045" y="-290" width="710" height="680" as="geometry" />
        </mxCell>
        <mxCell id="kggum_o1opRNr4FQGBPl-3" value="Operator" style="swimlane;startSize=20;html=1;" vertex="1" parent="kggum_o1opRNr4FQGBPl-2">
          <mxGeometry y="20" width="460" height="660" as="geometry" />
        </mxCell>
        <mxCell id="kggum_o1opRNr4FQGBPl-4" value="" style="ellipse;html=1;shape=startState;fillColor=#000000;strokeColor=#ff0000;" vertex="1" parent="kggum_o1opRNr4FQGBPl-3">
          <mxGeometry x="219.99999999999955" y="40" width="30" height="30" as="geometry" />
        </mxCell>
        <mxCell id="kggum_o1opRNr4FQGBPl-5" value="" style="edgeStyle=orthogonalEdgeStyle;html=1;verticalAlign=bottom;endArrow=open;endSize=8;strokeColor=#ff0000;rounded=0;" edge="1" parent="kggum_o1opRNr4FQGBPl-3" source="kggum_o1opRNr4FQGBPl-4">
          <mxGeometry relative="1" as="geometry">
            <mxPoint x="234.99999999999955" y="100" as="targetPoint" />
          </mxGeometry>
        </mxCell>
        <mxCell id="kggum_o1opRNr4FQGBPl-6" value="Login" style="rounded=1;whiteSpace=wrap;html=1;arcSize=40;fontColor=#000000;fillColor=#ffffc0;strokeColor=#ff0000;" vertex="1" parent="kggum_o1opRNr4FQGBPl-3">
          <mxGeometry x="174.99999999999955" y="100" width="120" height="40" as="geometry" />
        </mxCell>
        <mxCell id="kggum_o1opRNr4FQGBPl-7" value="Mengakses menu kuisioner" style="rounded=1;whiteSpace=wrap;html=1;arcSize=40;fontColor=#000000;fillColor=#ffffc0;strokeColor=#ff0000;" vertex="1" parent="kggum_o1opRNr4FQGBPl-3">
          <mxGeometry x="174.99999999999955" y="240" width="120" height="40" as="geometry" />
        </mxCell>
        <mxCell id="kggum_o1opRNr4FQGBPl-8" style="edgeStyle=orthogonalEdgeStyle;rounded=0;orthogonalLoop=1;jettySize=auto;html=1;exitX=0.25;exitY=0.5;exitDx=0;exitDy=0;exitPerimeter=0;entryX=0.5;entryY=0;entryDx=0;entryDy=0;" edge="1" parent="kggum_o1opRNr4FQGBPl-3" source="kggum_o1opRNr4FQGBPl-10" target="kggum_o1opRNr4FQGBPl-12">
          <mxGeometry relative="1" as="geometry" />
        </mxCell>
        <mxCell id="kggum_o1opRNr4FQGBPl-9" style="edgeStyle=orthogonalEdgeStyle;rounded=0;orthogonalLoop=1;jettySize=auto;html=1;exitX=0.75;exitY=0.5;exitDx=0;exitDy=0;exitPerimeter=0;entryX=0.5;entryY=0;entryDx=0;entryDy=0;" edge="1" parent="kggum_o1opRNr4FQGBPl-3" source="kggum_o1opRNr4FQGBPl-10" target="kggum_o1opRNr4FQGBPl-15">
          <mxGeometry relative="1" as="geometry" />
        </mxCell>
        <mxCell id="kggum_o1opRNr4FQGBPl-10" value="" style="shape=line;html=1;strokeWidth=6;strokeColor=#ff0000;" vertex="1" parent="kggum_o1opRNr4FQGBPl-3">
          <mxGeometry x="40" y="330" width="400" height="10" as="geometry" />
        </mxCell>
        <mxCell id="kggum_o1opRNr4FQGBPl-11" value="" style="edgeStyle=orthogonalEdgeStyle;html=1;verticalAlign=bottom;endArrow=open;endSize=8;strokeColor=#ff0000;rounded=0;" edge="1" parent="kggum_o1opRNr4FQGBPl-3" source="kggum_o1opRNr4FQGBPl-7">
          <mxGeometry relative="1" as="geometry">
            <mxPoint x="234.99999999999955" y="330" as="targetPoint" />
          </mxGeometry>
        </mxCell>
        <mxCell id="kggum_o1opRNr4FQGBPl-12" value="Tambah data Kuisioner" style="rounded=1;whiteSpace=wrap;html=1;arcSize=40;fontColor=#000000;fillColor=#ffffc0;strokeColor=#ff0000;" vertex="1" parent="kggum_o1opRNr4FQGBPl-3">
          <mxGeometry x="39.999999999999545" y="390" width="120" height="40" as="geometry" />
        </mxCell>
        <mxCell id="kggum_o1opRNr4FQGBPl-13" style="edgeStyle=orthogonalEdgeStyle;rounded=0;orthogonalLoop=1;jettySize=auto;html=1;exitX=0.5;exitY=1;exitDx=0;exitDy=0;" edge="1" parent="kggum_o1opRNr4FQGBPl-3" source="kggum_o1opRNr4FQGBPl-14" target="kggum_o1opRNr4FQGBPl-17">
          <mxGeometry relative="1" as="geometry" />
        </mxCell>
        <mxCell id="kggum_o1opRNr4FQGBPl-14" value="Edit data Kuisioner" style="rounded=1;whiteSpace=wrap;html=1;arcSize=40;fontColor=#000000;fillColor=#ffffc0;strokeColor=#ff0000;" vertex="1" parent="kggum_o1opRNr4FQGBPl-3">
          <mxGeometry x="174.99999999999955" y="390" width="120" height="40" as="geometry" />
        </mxCell>
        <mxCell id="kggum_o1opRNr4FQGBPl-15" value="Hapus data kuisioner" style="rounded=1;whiteSpace=wrap;html=1;arcSize=40;fontColor=#000000;fillColor=#ffffc0;strokeColor=#ff0000;" vertex="1" parent="kggum_o1opRNr4FQGBPl-3">
          <mxGeometry x="319.99999999999955" y="390" width="120" height="40" as="geometry" />
        </mxCell>
        <mxCell id="kggum_o1opRNr4FQGBPl-16" value="" style="endArrow=classic;html=1;rounded=0;entryX=0.5;entryY=0;entryDx=0;entryDy=0;exitX=0.49;exitY=0.547;exitDx=0;exitDy=0;exitPerimeter=0;" edge="1" parent="kggum_o1opRNr4FQGBPl-3" source="kggum_o1opRNr4FQGBPl-10" target="kggum_o1opRNr4FQGBPl-14">
          <mxGeometry width="50" height="50" relative="1" as="geometry">
            <mxPoint x="189.99999999999955" y="360" as="sourcePoint" />
            <mxPoint x="239.99999999999955" y="310" as="targetPoint" />
          </mxGeometry>
        </mxCell>
        <mxCell id="kggum_o1opRNr4FQGBPl-17" value="" style="shape=line;html=1;strokeWidth=6;strokeColor=#ff0000;" vertex="1" parent="kggum_o1opRNr4FQGBPl-3">
          <mxGeometry x="35" y="470" width="400" height="10" as="geometry" />
        </mxCell>
        <mxCell id="kggum_o1opRNr4FQGBPl-18" style="edgeStyle=orthogonalEdgeStyle;rounded=0;orthogonalLoop=1;jettySize=auto;html=1;exitX=0.5;exitY=1;exitDx=0;exitDy=0;entryX=0.163;entryY=0;entryDx=0;entryDy=0;entryPerimeter=0;" edge="1" parent="kggum_o1opRNr4FQGBPl-3" source="kggum_o1opRNr4FQGBPl-12" target="kggum_o1opRNr4FQGBPl-17">
          <mxGeometry relative="1" as="geometry" />
        </mxCell>
        <mxCell id="kggum_o1opRNr4FQGBPl-19" style="edgeStyle=orthogonalEdgeStyle;rounded=0;orthogonalLoop=1;jettySize=auto;html=1;exitX=0.5;exitY=1;exitDx=0;exitDy=0;entryX=0.863;entryY=0.429;entryDx=0;entryDy=0;entryPerimeter=0;" edge="1" parent="kggum_o1opRNr4FQGBPl-3" source="kggum_o1opRNr4FQGBPl-15" target="kggum_o1opRNr4FQGBPl-17">
          <mxGeometry relative="1" as="geometry" />
        </mxCell>
        <mxCell id="kggum_o1opRNr4FQGBPl-20" style="edgeStyle=elbowEdgeStyle;rounded=0;orthogonalLoop=1;jettySize=auto;html=1;exitX=0.25;exitY=0.5;exitDx=0;exitDy=0;exitPerimeter=0;elbow=vertical;" edge="1" parent="kggum_o1opRNr4FQGBPl-3">
          <mxGeometry relative="1" as="geometry">
            <mxPoint x="240.00000000000023" y="480" as="sourcePoint" />
            <mxPoint x="519.9999999999995" y="535" as="targetPoint" />
            <Array as="points">
              <mxPoint x="445" y="535" />
            </Array>
          </mxGeometry>
        </mxCell>
        <mxCell id="kggum_o1opRNr4FQGBPl-21" value="SIstem" style="swimlane;startSize=20;html=1;" vertex="1" parent="kggum_o1opRNr4FQGBPl-2">
          <mxGeometry x="460" y="20" width="250" height="660" as="geometry" />
        </mxCell>
        <mxCell id="kggum_o1opRNr4FQGBPl-22" style="edgeStyle=orthogonalEdgeStyle;rounded=0;orthogonalLoop=1;jettySize=auto;html=1;exitX=0.5;exitY=1;exitDx=0;exitDy=0;" edge="1" parent="kggum_o1opRNr4FQGBPl-21" source="kggum_o1opRNr4FQGBPl-23">
          <mxGeometry relative="1" as="geometry">
            <mxPoint x="124.99999999999955" y="240" as="targetPoint" />
          </mxGeometry>
        </mxCell>
        <mxCell id="kggum_o1opRNr4FQGBPl-23" value="cek data user" style="rhombus;whiteSpace=wrap;html=1;fontColor=#000000;fillColor=#ffffc0;strokeColor=#ff0000;" vertex="1" parent="kggum_o1opRNr4FQGBPl-21">
          <mxGeometry x="72.5" y="140" width="105" height="50" as="geometry" />
        </mxCell>
        <mxCell id="kggum_o1opRNr4FQGBPl-24" value="ya" style="text;strokeColor=none;fillColor=none;spacingLeft=4;spacingRight=4;overflow=hidden;rotatable=0;points=[[0,0.5],[1,0.5]];portConstraint=eastwest;fontSize=12;whiteSpace=wrap;html=1;" vertex="1" parent="kggum_o1opRNr4FQGBPl-21">
          <mxGeometry x="129.99999999999955" y="190" width="40" height="30" as="geometry" />
        </mxCell>
        <mxCell id="kggum_o1opRNr4FQGBPl-25" value="tidak" style="text;strokeColor=none;fillColor=none;spacingLeft=4;spacingRight=4;overflow=hidden;rotatable=0;points=[[0,0.5],[1,0.5]];portConstraint=eastwest;fontSize=12;whiteSpace=wrap;html=1;" vertex="1" parent="kggum_o1opRNr4FQGBPl-21">
          <mxGeometry x="19.999999999999545" y="140" width="40" height="30" as="geometry" />
        </mxCell>
        <mxCell id="kggum_o1opRNr4FQGBPl-26" value="Menampilkan Halaman dashboard" style="rounded=1;whiteSpace=wrap;html=1;arcSize=40;fontColor=#000000;fillColor=#ffffc0;strokeColor=#ff0000;" vertex="1" parent="kggum_o1opRNr4FQGBPl-21">
          <mxGeometry x="64.99999999999955" y="240" width="120" height="40" as="geometry" />
        </mxCell>
        <mxCell id="kggum_o1opRNr4FQGBPl-27" style="edgeStyle=orthogonalEdgeStyle;rounded=0;orthogonalLoop=1;jettySize=auto;html=1;exitX=0.5;exitY=1;exitDx=0;exitDy=0;entryX=0.5;entryY=0;entryDx=0;entryDy=0;" edge="1" parent="kggum_o1opRNr4FQGBPl-21" source="kggum_o1opRNr4FQGBPl-28" target="kggum_o1opRNr4FQGBPl-29">
          <mxGeometry relative="1" as="geometry" />
        </mxCell>
        <mxCell id="kggum_o1opRNr4FQGBPl-28" value="Simpan data&amp;nbsp;" style="rounded=1;whiteSpace=wrap;html=1;arcSize=40;fontColor=#000000;fillColor=#ffffc0;strokeColor=#ff0000;" vertex="1" parent="kggum_o1opRNr4FQGBPl-21">
          <mxGeometry x="59.999999999999545" y="510" width="120" height="40" as="geometry" />
        </mxCell>
        <mxCell id="kggum_o1opRNr4FQGBPl-29" value="" style="ellipse;html=1;shape=endState;fillColor=#000000;strokeColor=#ff0000;" vertex="1" parent="kggum_o1opRNr4FQGBPl-21">
          <mxGeometry x="104.99999999999955" y="590" width="30" height="30" as="geometry" />
        </mxCell>
        <mxCell id="kggum_o1opRNr4FQGBPl-30" style="edgeStyle=orthogonalEdgeStyle;rounded=0;orthogonalLoop=1;jettySize=auto;html=1;exitX=1;exitY=0.5;exitDx=0;exitDy=0;entryX=0.5;entryY=0;entryDx=0;entryDy=0;" edge="1" parent="kggum_o1opRNr4FQGBPl-2" source="kggum_o1opRNr4FQGBPl-6" target="kggum_o1opRNr4FQGBPl-23">
          <mxGeometry relative="1" as="geometry" />
        </mxCell>
        <mxCell id="kggum_o1opRNr4FQGBPl-31" style="edgeStyle=orthogonalEdgeStyle;rounded=0;orthogonalLoop=1;jettySize=auto;html=1;exitX=0;exitY=0.5;exitDx=0;exitDy=0;entryX=0.5;entryY=1;entryDx=0;entryDy=0;" edge="1" parent="kggum_o1opRNr4FQGBPl-2" source="kggum_o1opRNr4FQGBPl-23" target="kggum_o1opRNr4FQGBPl-6">
          <mxGeometry relative="1" as="geometry" />
        </mxCell>
        <mxCell id="kggum_o1opRNr4FQGBPl-32" style="edgeStyle=orthogonalEdgeStyle;rounded=0;orthogonalLoop=1;jettySize=auto;html=1;exitX=0;exitY=0.5;exitDx=0;exitDy=0;entryX=1;entryY=0.5;entryDx=0;entryDy=0;" edge="1" parent="kggum_o1opRNr4FQGBPl-2" source="kggum_o1opRNr4FQGBPl-26" target="kggum_o1opRNr4FQGBPl-7">
          <mxGeometry relative="1" as="geometry" />
        </mxCell>
      </root>
    </mxGraphModel>
  </diagram>
</mxfile>
